<svg width="156" height="26" viewBox="0 0 156 26" fill="none" xmlns="http://www.w3.org/2000/svg">
<path d="M8.64 18.816L4.944 12.288H3.36V18.816H0V2.064H6.288C7.584 2.064 8.688 2.296 9.6 2.76C10.512 3.208 11.192 3.824 11.64 4.608C12.104 5.376 12.336 6.24 12.336 7.2C12.336 8.304 12.016 9.304 11.376 10.2C10.736 11.08 9.784 11.688 8.52 12.024L12.528 18.816H8.64ZM3.36 9.768H6.168C7.08 9.768 7.76 9.552 8.208 9.12C8.656 8.672 8.88 8.056 8.88 7.272C8.88 6.504 8.656 5.912 8.208 5.496C7.76 5.064 7.08 4.848 6.168 4.848H3.36V9.768Z" fill="#F2F2F2"/>
<path d="M27.735 11.88C27.735 12.36 27.703 12.792 27.639 13.176H17.919C17.999 14.136 18.335 14.888 18.927 15.432C19.519 15.976 20.247 16.248 21.111 16.248C22.359 16.248 23.247 15.712 23.775 14.64H27.399C27.015 15.92 26.279 16.976 25.191 17.808C24.103 18.624 22.767 19.032 21.183 19.032C19.903 19.032 18.751 18.752 17.727 18.192C16.719 17.616 15.927 16.808 15.351 15.768C14.791 14.728 14.511 13.528 14.511 12.168C14.511 10.792 14.791 9.584 15.351 8.544C15.911 7.504 16.695 6.704 17.703 6.144C18.711 5.584 19.871 5.304 21.183 5.304C22.447 5.304 23.575 5.576 24.567 6.12C25.575 6.664 26.351 7.44 26.895 8.448C27.455 9.44 27.735 10.584 27.735 11.88ZM24.255 10.92C24.239 10.056 23.927 9.368 23.319 8.856C22.711 8.328 21.967 8.064 21.087 8.064C20.255 8.064 19.551 8.32 18.975 8.832C18.415 9.328 18.071 10.024 17.943 10.92H24.255Z" fill="#F2F2F2"/>
<path d="M29.3235 12.168C29.3235 10.792 29.6035 9.592 30.1635 8.568C30.7235 7.528 31.4995 6.728 32.4915 6.168C33.4835 5.592 34.6195 5.304 35.8995 5.304C37.5475 5.304 38.9075 5.72 39.9795 6.552C41.0675 7.368 41.7955 8.52 42.1635 10.008H38.5395C38.3475 9.432 38.0195 8.984 37.5555 8.664C37.1075 8.328 36.5475 8.16 35.8755 8.16C34.9155 8.16 34.1555 8.512 33.5955 9.216C33.0355 9.904 32.7555 10.888 32.7555 12.168C32.7555 13.432 33.0355 14.416 33.5955 15.12C34.1555 15.808 34.9155 16.152 35.8755 16.152C37.2355 16.152 38.1235 15.544 38.5395 14.328H42.1635C41.7955 15.768 41.0675 16.912 39.9795 17.76C38.8915 18.608 37.5315 19.032 35.8995 19.032C34.6195 19.032 33.4835 18.752 32.4915 18.192C31.4995 17.616 30.7235 16.816 30.1635 15.792C29.6035 14.752 29.3235 13.544 29.3235 12.168Z" fill="#F2F2F2"/>
<path d="M56.985 11.88C56.985 12.36 56.953 12.792 56.889 13.176H47.169C47.249 14.136 47.585 14.888 48.177 15.432C48.769 15.976 49.497 16.248 50.361 16.248C51.609 16.248 52.497 15.712 53.025 14.64H56.649C56.265 15.92 55.529 16.976 54.441 17.808C53.353 18.624 52.017 19.032 50.433 19.032C49.153 19.032 48.001 18.752 46.977 18.192C45.969 17.616 45.177 16.808 44.601 15.768C44.041 14.728 43.761 13.528 43.761 12.168C43.761 10.792 44.041 9.584 44.601 8.544C45.161 7.504 45.945 6.704 46.953 6.144C47.961 5.584 49.121 5.304 50.433 5.304C51.697 5.304 52.825 5.576 53.817 6.12C54.825 6.664 55.601 7.44 56.145 8.448C56.705 9.44 56.985 10.584 56.985 11.88ZM53.505 10.92C53.489 10.056 53.177 9.368 52.569 8.856C51.961 8.328 51.217 8.064 50.337 8.064C49.505 8.064 48.801 8.32 48.225 8.832C47.665 9.328 47.321 10.024 47.193 10.92H53.505Z" fill="#F2F2F2"/>
<path d="M61.1415 3.936C60.5495 3.936 60.0535 3.752 59.6535 3.384C59.2695 3 59.0775 2.528 59.0775 1.968C59.0775 1.408 59.2695 0.944 59.6535 0.576C60.0535 0.192 60.5495 0 61.1415 0C61.7335 0 62.2215 0.192 62.6055 0.576C63.0055 0.944 63.2055 1.408 63.2055 1.968C63.2055 2.528 63.0055 3 62.6055 3.384C62.2215 3.752 61.7335 3.936 61.1415 3.936ZM62.7975 5.52V18.816H59.4375V5.52H62.7975Z" fill="#F2F2F2"/>
<path d="M70.0292 8.28V14.712C70.0292 15.16 70.1332 15.488 70.3412 15.696C70.5652 15.888 70.9332 15.984 71.4452 15.984H73.0052V18.816H70.8932C68.0612 18.816 66.6452 17.44 66.6452 14.688V8.28H65.0612V5.52H66.6452V2.232H70.0292V5.52H73.0052V8.28H70.0292Z" fill="#F2F2F2"/>
<path d="M74.5579 12.12C74.5579 10.776 74.8219 9.584 75.3499 8.544C75.8939 7.504 76.6219 6.704 77.5339 6.144C78.4619 5.584 79.4939 5.304 80.6299 5.304C81.6219 5.304 82.4859 5.504 83.2219 5.904C83.9739 6.304 84.5739 6.808 85.0219 7.416V5.52H88.4059V18.816H85.0219V16.872C84.5899 17.496 83.9899 18.016 83.2219 18.432C82.4699 18.832 81.5979 19.032 80.6059 19.032C79.4859 19.032 78.4619 18.744 77.5339 18.168C76.6219 17.592 75.8939 16.784 75.3499 15.744C74.8219 14.688 74.5579 13.48 74.5579 12.12ZM85.0219 12.168C85.0219 11.352 84.8619 10.656 84.5419 10.08C84.2219 9.488 83.7899 9.04 83.2459 8.736C82.7019 8.416 82.1179 8.256 81.4939 8.256C80.8699 8.256 80.2939 8.408 79.7659 8.712C79.2379 9.016 78.8059 9.464 78.4699 10.056C78.1499 10.632 77.9899 11.32 77.9899 12.12C77.9899 12.92 78.1499 13.624 78.4699 14.232C78.8059 14.824 79.2379 15.28 79.7659 15.6C80.3099 15.92 80.8859 16.08 81.4939 16.08C82.1179 16.08 82.7019 15.928 83.2459 15.624C83.7899 15.304 84.2219 14.856 84.5419 14.28C84.8619 13.688 85.0219 12.984 85.0219 12.168Z" fill="#F2F2F2"/>
<path d="M96.7755 19.032C95.6875 19.032 94.7115 18.84 93.8475 18.456C92.9835 18.056 92.2955 17.52 91.7835 16.848C91.2875 16.176 91.0155 15.432 90.9675 14.616H94.3515C94.4155 15.128 94.6635 15.552 95.0955 15.888C95.5435 16.224 96.0955 16.392 96.7515 16.392C97.3915 16.392 97.8875 16.264 98.2395 16.008C98.6075 15.752 98.7915 15.424 98.7915 15.024C98.7915 14.592 98.5675 14.272 98.1195 14.064C97.6875 13.84 96.9915 13.6 96.0315 13.344C95.0395 13.104 94.2235 12.856 93.5835 12.6C92.9595 12.344 92.4155 11.952 91.9515 11.424C91.5035 10.896 91.2795 10.184 91.2795 9.288C91.2795 8.552 91.4875 7.88 91.9035 7.272C92.3355 6.664 92.9435 6.184 93.7275 5.832C94.5275 5.48 95.4635 5.304 96.5355 5.304C98.1195 5.304 99.3835 5.704 100.327 6.504C101.271 7.288 101.792 8.352 101.888 9.696H98.6715C98.6235 9.168 98.3995 8.752 97.9995 8.448C97.6155 8.128 97.0955 7.968 96.4395 7.968C95.8315 7.968 95.3595 8.08 95.0235 8.304C94.7035 8.528 94.5435 8.84 94.5435 9.24C94.5435 9.688 94.7675 10.032 95.2155 10.272C95.6635 10.496 96.3595 10.728 97.3035 10.968C98.2635 11.208 99.0555 11.456 99.6795 11.712C100.304 11.968 100.839 12.368 101.287 12.912C101.751 13.44 101.991 14.144 102.007 15.024C102.007 15.792 101.792 16.48 101.36 17.088C100.944 17.696 100.335 18.176 99.5355 18.528C98.7515 18.864 97.8315 19.032 96.7755 19.032Z" fill="#F2F2F2"/>
<path d="M114.27 10.224C115.214 10.4 115.99 10.872 116.598 11.64C117.206 12.408 117.51 13.288 117.51 14.28C117.51 15.176 117.286 15.968 116.838 16.656C116.406 17.328 115.774 17.856 114.942 18.24C114.11 18.624 113.126 18.816 111.99 18.816H104.766V2.064H111.678C112.814 2.064 113.79 2.248 114.606 2.616C115.438 2.984 116.062 3.496 116.478 4.152C116.91 4.808 117.126 5.552 117.126 6.384C117.126 7.36 116.862 8.176 116.334 8.832C115.822 9.488 115.134 9.952 114.27 10.224ZM108.126 8.976H111.198C111.998 8.976 112.614 8.8 113.046 8.448C113.478 8.08 113.694 7.56 113.694 6.888C113.694 6.216 113.478 5.696 113.046 5.328C112.614 4.96 111.998 4.776 111.198 4.776H108.126V8.976ZM111.51 16.08C112.326 16.08 112.958 15.888 113.406 15.504C113.87 15.12 114.102 14.576 114.102 13.872C114.102 13.152 113.862 12.592 113.382 12.192C112.902 11.776 112.254 11.568 111.438 11.568H108.126V16.08H111.51Z" fill="#F2F2F2"/>
<path d="M123.548 1.056V18.816H120.188V1.056H123.548Z" fill="#F2F2F2"/>
<path d="M132.771 19.032C131.491 19.032 130.339 18.752 129.315 18.192C128.291 17.616 127.483 16.808 126.891 15.768C126.315 14.728 126.027 13.528 126.027 12.168C126.027 10.808 126.323 9.608 126.915 8.568C127.523 7.528 128.347 6.728 129.387 6.168C130.427 5.592 131.587 5.304 132.867 5.304C134.147 5.304 135.307 5.592 136.347 6.168C137.387 6.728 138.203 7.528 138.795 8.568C139.403 9.608 139.707 10.808 139.707 12.168C139.707 13.528 139.395 14.728 138.771 15.768C138.163 16.808 137.331 17.616 136.275 18.192C135.235 18.752 134.067 19.032 132.771 19.032ZM132.771 16.104C133.379 16.104 133.947 15.96 134.475 15.672C135.019 15.368 135.451 14.92 135.771 14.328C136.091 13.736 136.251 13.016 136.251 12.168C136.251 10.904 135.915 9.936 135.243 9.264C134.587 8.576 133.779 8.232 132.819 8.232C131.859 8.232 131.051 8.576 130.395 9.264C129.755 9.936 129.435 10.904 129.435 12.168C129.435 13.432 129.747 14.408 130.371 15.096C131.011 15.768 131.811 16.104 132.771 16.104Z" fill="#F2F2F2"/>
<path d="M147.38 5.304C148.372 5.304 149.244 5.504 149.996 5.904C150.748 6.288 151.34 6.792 151.772 7.416V5.52H155.156V18.912C155.156 20.144 154.908 21.24 154.412 22.2C153.916 23.176 153.172 23.944 152.18 24.504C151.188 25.08 149.988 25.368 148.58 25.368C146.692 25.368 145.14 24.928 143.924 24.048C142.724 23.168 142.044 21.968 141.884 20.448H145.22C145.396 21.056 145.772 21.536 146.348 21.888C146.94 22.256 147.652 22.44 148.484 22.44C149.46 22.44 150.252 22.144 150.86 21.552C151.468 20.976 151.772 20.096 151.772 18.912V16.848C151.34 17.472 150.74 17.992 149.972 18.408C149.22 18.824 148.356 19.032 147.38 19.032C146.26 19.032 145.236 18.744 144.308 18.168C143.38 17.592 142.644 16.784 142.1 15.744C141.572 14.688 141.308 13.48 141.308 12.12C141.308 10.776 141.572 9.584 142.1 8.544C142.644 7.504 143.372 6.704 144.284 6.144C145.212 5.584 146.244 5.304 147.38 5.304ZM151.772 12.168C151.772 11.352 151.612 10.656 151.292 10.08C150.972 9.488 150.54 9.04 149.996 8.736C149.452 8.416 148.868 8.256 148.244 8.256C147.62 8.256 147.044 8.408 146.516 8.712C145.988 9.016 145.556 9.464 145.22 10.056C144.9 10.632 144.74 11.32 144.74 12.12C144.74 12.92 144.9 13.624 145.22 14.232C145.556 14.824 145.988 15.28 146.516 15.6C147.06 15.92 147.636 16.08 148.244 16.08C148.868 16.08 149.452 15.928 149.996 15.624C150.54 15.304 150.972 14.856 151.292 14.28C151.612 13.688 151.772 12.984 151.772 12.168Z" fill="#F2F2F2"/>
</svg>
