<svg width="311" height="52" viewBox="0 0 311 52" fill="none" xmlns="http://www.w3.org/2000/svg">
<path d="M17.592 38L10.2 24.944H7.032V38H0.311996V4.496H12.888C15.48 4.496 17.688 4.96 19.512 5.888C21.336 6.784 22.696 8.016 23.592 9.584C24.52 11.12 24.984 12.848 24.984 14.768C24.984 16.976 24.344 18.976 23.064 20.768C21.784 22.528 19.88 23.744 17.352 24.416L25.368 38H17.592ZM7.032 19.904H12.648C14.472 19.904 15.832 19.472 16.728 18.608C17.624 17.712 18.072 16.48 18.072 14.912C18.072 13.376 17.624 12.192 16.728 11.36C15.832 10.496 14.472 10.064 12.648 10.064H7.032V19.904Z" fill="white"/>
<path d="M55.782 24.128C55.782 25.088 55.718 25.952 55.59 26.72H36.15C36.31 28.64 36.982 30.144 38.166 31.232C39.35 32.32 40.806 32.864 42.534 32.864C45.03 32.864 46.806 31.792 47.862 29.648H55.11C54.342 32.208 52.87 34.32 50.694 35.984C48.518 37.616 45.846 38.432 42.678 38.432C40.118 38.432 37.814 37.872 35.766 36.752C33.75 35.6 32.166 33.984 31.014 31.904C29.894 29.824 29.334 27.424 29.334 24.704C29.334 21.952 29.894 19.536 31.014 17.456C32.134 15.376 33.702 13.776 35.718 12.656C37.734 11.536 40.054 10.976 42.678 10.976C45.206 10.976 47.462 11.52 49.446 12.608C51.462 13.696 53.014 15.248 54.102 17.264C55.222 19.248 55.782 21.536 55.782 24.128ZM48.822 22.208C48.79 20.48 48.166 19.104 46.95 18.08C45.734 17.024 44.246 16.496 42.486 16.496C40.822 16.496 39.414 17.008 38.262 18.032C37.142 19.024 36.454 20.416 36.198 22.208H48.822Z" fill="white"/>
<path d="M58.959 24.704C58.959 21.952 59.519 19.552 60.639 17.504C61.759 15.424 63.311 13.824 65.295 12.704C67.279 11.552 69.551 10.976 72.111 10.976C75.407 10.976 78.127 11.808 80.271 13.472C82.447 15.104 83.903 17.408 84.639 20.384H77.391C77.007 19.232 76.351 18.336 75.423 17.696C74.527 17.024 73.407 16.688 72.063 16.688C70.143 16.688 68.623 17.392 67.503 18.8C66.383 20.176 65.823 22.144 65.823 24.704C65.823 27.232 66.383 29.2 67.503 30.608C68.623 31.984 70.143 32.672 72.063 32.672C74.783 32.672 76.559 31.456 77.391 29.024H84.639C83.903 31.904 82.447 34.192 80.271 35.888C78.095 37.584 75.375 38.432 72.111 38.432C69.551 38.432 67.279 37.872 65.295 36.752C63.311 35.6 61.759 34 60.639 31.952C59.519 29.872 58.959 27.456 58.959 24.704Z" fill="white"/>
<path d="M114.282 24.128C114.282 25.088 114.218 25.952 114.09 26.72H94.65C94.81 28.64 95.482 30.144 96.666 31.232C97.85 32.32 99.306 32.864 101.034 32.864C103.53 32.864 105.306 31.792 106.362 29.648H113.61C112.842 32.208 111.37 34.32 109.194 35.984C107.018 37.616 104.346 38.432 101.178 38.432C98.618 38.432 96.314 37.872 94.266 36.752C92.25 35.6 90.666 33.984 89.514 31.904C88.394 29.824 87.834 27.424 87.834 24.704C87.834 21.952 88.394 19.536 89.514 17.456C90.634 15.376 92.202 13.776 94.218 12.656C96.234 11.536 98.554 10.976 101.178 10.976C103.706 10.976 105.962 11.52 107.946 12.608C109.962 13.696 111.514 15.248 112.602 17.264C113.722 19.248 114.282 21.536 114.282 24.128ZM107.322 22.208C107.29 20.48 106.666 19.104 105.45 18.08C104.234 17.024 102.746 16.496 100.986 16.496C99.322 16.496 97.914 17.008 96.762 18.032C95.642 19.024 94.954 20.416 94.698 22.208H107.322Z" fill="white"/>
<path d="M122.595 8.24C121.411 8.24 120.419 7.872 119.619 7.136C118.851 6.368 118.467 5.424 118.467 4.304C118.467 3.184 118.851 2.256 119.619 1.52C120.419 0.751996 121.411 0.367996 122.595 0.367996C123.779 0.367996 124.755 0.751996 125.523 1.52C126.323 2.256 126.723 3.184 126.723 4.304C126.723 5.424 126.323 6.368 125.523 7.136C124.755 7.872 123.779 8.24 122.595 8.24ZM125.907 11.408V38H119.187V11.408H125.907Z" fill="white"/>
<path d="M140.37 16.928V29.792C140.37 30.688 140.578 31.344 140.994 31.76C141.442 32.144 142.178 32.336 143.202 32.336H146.322V38H142.098C136.434 38 133.602 35.248 133.602 29.744V16.928H130.434V11.408H133.602V4.832H140.37V11.408H146.322V16.928H140.37Z" fill="white"/>
<path d="M149.428 24.608C149.428 21.92 149.956 19.536 151.012 17.456C152.1 15.376 153.556 13.776 155.38 12.656C157.236 11.536 159.3 10.976 161.572 10.976C163.556 10.976 165.284 11.376 166.756 12.176C168.26 12.976 169.46 13.984 170.356 15.2V11.408H177.124V38H170.356V34.112C169.492 35.36 168.292 36.4 166.756 37.232C165.252 38.032 163.508 38.432 161.524 38.432C159.284 38.432 157.236 37.856 155.38 36.704C153.556 35.552 152.1 33.936 151.012 31.856C149.956 29.744 149.428 27.328 149.428 24.608ZM170.356 24.704C170.356 23.072 170.036 21.68 169.396 20.528C168.756 19.344 167.892 18.448 166.804 17.84C165.716 17.2 164.548 16.88 163.3 16.88C162.052 16.88 160.9 17.184 159.844 17.792C158.788 18.4 157.924 19.296 157.252 20.48C156.612 21.632 156.292 23.008 156.292 24.608C156.292 26.208 156.612 27.616 157.252 28.832C157.924 30.016 158.788 30.928 159.844 31.568C160.932 32.208 162.084 32.528 163.3 32.528C164.548 32.528 165.716 32.224 166.804 31.616C167.892 30.976 168.756 30.08 169.396 28.928C170.036 27.744 170.356 26.336 170.356 24.704Z" fill="white"/>
<path d="M193.863 38.432C191.687 38.432 189.735 38.048 188.007 37.28C186.279 36.48 184.903 35.408 183.879 34.064C182.887 32.72 182.343 31.232 182.247 29.6H189.015C189.143 30.624 189.639 31.472 190.503 32.144C191.399 32.816 192.503 33.152 193.815 33.152C195.095 33.152 196.087 32.896 196.791 32.384C197.527 31.872 197.895 31.216 197.895 30.416C197.895 29.552 197.447 28.912 196.551 28.496C195.687 28.048 194.295 27.568 192.375 27.056C190.391 26.576 188.759 26.08 187.479 25.568C186.231 25.056 185.143 24.272 184.215 23.216C183.319 22.16 182.871 20.736 182.871 18.944C182.871 17.472 183.287 16.128 184.119 14.912C184.983 13.696 186.199 12.736 187.767 12.032C189.367 11.328 191.239 10.976 193.383 10.976C196.551 10.976 199.079 11.776 200.967 13.376C202.855 14.944 203.895 17.072 204.087 19.76H197.655C197.559 18.704 197.111 17.872 196.311 17.264C195.543 16.624 194.503 16.304 193.191 16.304C191.975 16.304 191.031 16.528 190.359 16.976C189.719 17.424 189.399 18.048 189.399 18.848C189.399 19.744 189.847 20.432 190.743 20.912C191.639 21.36 193.031 21.824 194.919 22.304C196.839 22.784 198.423 23.28 199.671 23.792C200.919 24.304 201.991 25.104 202.887 26.192C203.815 27.248 204.295 28.656 204.327 30.416C204.327 31.952 203.895 33.328 203.031 34.544C202.199 35.76 200.983 36.72 199.383 37.424C197.815 38.096 195.975 38.432 193.863 38.432Z" fill="white"/>
<path d="M228.851 20.816C230.739 21.168 232.291 22.112 233.507 23.648C234.723 25.184 235.331 26.944 235.331 28.928C235.331 30.72 234.883 32.304 233.987 33.68C233.123 35.024 231.859 36.08 230.195 36.848C228.531 37.616 226.563 38 224.291 38H209.843V4.496H223.667C225.939 4.496 227.891 4.864 229.523 5.6C231.187 6.336 232.435 7.36 233.267 8.672C234.131 9.984 234.563 11.472 234.563 13.136C234.563 15.088 234.035 16.72 232.979 18.032C231.955 19.344 230.579 20.272 228.851 20.816ZM216.563 18.32H222.707C224.307 18.32 225.539 17.968 226.403 17.264C227.267 16.528 227.699 15.488 227.699 14.144C227.699 12.8 227.267 11.76 226.403 11.024C225.539 10.288 224.307 9.92 222.707 9.92H216.563V18.32ZM223.331 32.528C224.963 32.528 226.227 32.144 227.123 31.376C228.051 30.608 228.515 29.52 228.515 28.112C228.515 26.672 228.035 25.552 227.075 24.752C226.115 23.92 224.819 23.504 223.187 23.504H216.563V32.528H223.331Z" fill="white"/>
<path d="M247.407 2.48V38H240.687V2.48H247.407Z" fill="white"/>
<path d="M265.854 38.432C263.294 38.432 260.99 37.872 258.942 36.752C256.894 35.6 255.278 33.984 254.094 31.904C252.942 29.824 252.366 27.424 252.366 24.704C252.366 21.984 252.958 19.584 254.142 17.504C255.358 15.424 257.006 13.824 259.086 12.704C261.166 11.552 263.486 10.976 266.046 10.976C268.606 10.976 270.926 11.552 273.006 12.704C275.086 13.824 276.718 15.424 277.902 17.504C279.118 19.584 279.726 21.984 279.726 24.704C279.726 27.424 279.102 29.824 277.854 31.904C276.638 33.984 274.974 35.6 272.862 36.752C270.782 37.872 268.446 38.432 265.854 38.432ZM265.854 32.576C267.07 32.576 268.206 32.288 269.262 31.712C270.35 31.104 271.214 30.208 271.854 29.024C272.494 27.84 272.814 26.4 272.814 24.704C272.814 22.176 272.142 20.24 270.798 18.896C269.486 17.52 267.87 16.832 265.95 16.832C264.03 16.832 262.414 17.52 261.102 18.896C259.822 20.24 259.182 22.176 259.182 24.704C259.182 27.232 259.806 29.184 261.054 30.56C262.334 31.904 263.934 32.576 265.854 32.576Z" fill="white"/>
<path d="M295.072 10.976C297.056 10.976 298.8 11.376 300.304 12.176C301.808 12.944 302.992 13.952 303.856 15.2V11.408H310.624V38.192C310.624 40.656 310.128 42.848 309.136 44.768C308.144 46.72 306.656 48.256 304.672 49.376C302.688 50.528 300.288 51.104 297.472 51.104C293.696 51.104 290.592 50.224 288.16 48.464C285.76 46.704 284.4 44.304 284.08 41.264H290.752C291.104 42.48 291.856 43.44 293.008 44.144C294.192 44.88 295.616 45.248 297.28 45.248C299.232 45.248 300.816 44.656 302.032 43.472C303.248 42.32 303.856 40.56 303.856 38.192V34.064C302.992 35.312 301.792 36.352 300.256 37.184C298.752 38.016 297.024 38.432 295.072 38.432C292.832 38.432 290.784 37.856 288.928 36.704C287.072 35.552 285.6 33.936 284.512 31.856C283.456 29.744 282.928 27.328 282.928 24.608C282.928 21.92 283.456 19.536 284.512 17.456C285.6 15.376 287.056 13.776 288.88 12.656C290.736 11.536 292.8 10.976 295.072 10.976ZM303.856 24.704C303.856 23.072 303.536 21.68 302.896 20.528C302.256 19.344 301.392 18.448 300.304 17.84C299.216 17.2 298.048 16.88 296.8 16.88C295.552 16.88 294.4 17.184 293.344 17.792C292.288 18.4 291.424 19.296 290.752 20.48C290.112 21.632 289.792 23.008 289.792 24.608C289.792 26.208 290.112 27.616 290.752 28.832C291.424 30.016 292.288 30.928 293.344 31.568C294.432 32.208 295.584 32.528 296.8 32.528C298.048 32.528 299.216 32.224 300.304 31.616C301.392 30.976 302.256 30.08 302.896 28.928C303.536 27.744 303.856 26.336 303.856 24.704Z" fill="white"/>
</svg>
