<svg width="16" height="24" viewBox="0 0 16 24" fill="none" xmlns="http://www.w3.org/2000/svg">
<rect x="0.5" y="8.5" width="15" height="15" fill="#0077B6" stroke="#111111"/>
<path d="M9.148 20L7.3 16.736H6.508V20H4.828V11.624H7.972C8.62 11.624 9.172 11.74 9.628 11.972C10.084 12.196 10.424 12.504 10.648 12.896C10.88 13.28 10.996 13.712 10.996 14.192C10.996 14.744 10.836 15.244 10.516 15.692C10.196 16.132 9.72 16.436 9.088 16.604L11.092 20H9.148ZM6.508 15.476H7.912C8.368 15.476 8.708 15.368 8.932 15.152C9.156 14.928 9.268 14.62 9.268 14.228C9.268 13.844 9.156 13.548 8.932 13.34C8.708 13.124 8.368 13.016 7.912 13.016H6.508V15.476Z" fill="white"/>
</svg>
